<svg xmlns="http://www.w3.org/2000/svg" xmlns:svg="http://www.w3.org/2000/svg" id="svg3125" width="91" height="18" version="1.1"><metadata id="metadata3130"/><g id="layer1" transform="translate(0,-1034.3622)"><g id="Green" transform="translate(12,1033.1122)"><linearGradient id="SVGID_1_" x1="1042.501" x2="1042.501" y1="3815" y2="3797" gradientTransform="translate(-988,-3795.5)" gradientUnits="userSpaceOnUse"><stop id="stop4336" offset="0" style="stop-color:#725c0c;stop-opacity:1"/><stop id="stop4338" offset=".1" style="stop-color:#9e7f10;stop-opacity:1"/><stop id="stop4340" offset=".96" style="stop-color:#e0b417;stop-opacity:1"/><stop id="stop4342" offset="1" style="stop-color:#ffe37f;stop-opacity:1"/></linearGradient><path id="path4344" d="m 32,19.25 44,0 c 1.657,0 3,-1.343 3,-3 l 0,-12 c 0,-1.657 -1.343,-3 -3,-3 l -44,0 z" style="fill:url(#SVGID_1_)"/><linearGradient id="SVGID_2_" x1="852" x2="852" y1="3221.625" y2="3203.746" gradientTransform="translate(-836,-3202.5)" gradientUnits="userSpaceOnUse"><stop id="stop4347" offset="0" style="stop-color:#2e2e2e"/><stop id="stop4349" offset=".1" style="stop-color:#3f3f3f"/><stop id="stop4351" offset=".96" style="stop-color:#5a5a5a"/><stop id="stop4353" offset="1" style="stop-color:#aaa"/></linearGradient><path id="path4355" d="m 32,19.25 -41,3e-6 c -1.657,0 -3,-1.343 -3,-3 l 0,-12.0000008 c 0,-1.657 1.343,-2.9999999 3,-3 L 32,1.25 z" style="fill:url(#SVGID_2_)"/><g id="g4357"><g id="g4359" style="opacity:.3"><text id="text4361" font-size="10" transform="translate(35,14.8193)" style="font-size:10px;font-family:OpenSans">pending</text></g><g id="g4363"><text id="text4365" font-size="10" transform="translate(35,13.8193)" style="font-size:10px;fill:#fff;font-family:OpenSans">pending</text></g></g><g id="g4367"><g id="g4369" style="opacity:.3"><text id="text4371" font-size="10" transform="translate(5,14.8193)" style="font-size:10px;font-family:OpenSans">build</text></g><g id="g4373"><text id="text4375" font-size="10" transform="translate(5,13.8193)" style="font-size:10px;fill:#fff;font-family:OpenSans">build</text></g></g></g><g id="g4406" transform="matrix(0.05599998,0,0,0.05599998,-29.359984,1014.3892)"><path style="fill:#006eaf;fill-opacity:1;stroke:none" id="path4408" d="M 580.15625,449.4375 679,503.375 l 3,-57 -30.5625,-49.3125 c -29.68296,8.27089 -54.9025,27.14593 -71.28125,52.375 z"/><path style="fill:#00a7e1;fill-opacity:1;stroke:none" id="path4410" d="M 618.625,623.15625 680,523.375 580.125,449.46875 C 567.43686,469.02764 560,492.32468 560,517.375 c 0,44.61944 23.44917,83.66331 58.625,105.78125 z"/><path style="fill:#5bc9ec;fill-opacity:1;stroke:none" id="path4412" d="m 686,642.3125 -6,-97.9375 -61.34375,78.78125 C 637.90001,635.25066 660.5934,642.375 685,642.375 c 0.33778,0 0.66286,-0.0598 1,-0.0625 z"/><path style="fill:#5bc9ec;fill-opacity:1;stroke:none" id="path4414" d="M 752.40625,622.5 689,542.375 l -3,99.9375 c 24.47027,-0.19412 47.20674,-7.47677 66.40625,-19.8125 z"/><path style="fill:#00a7e1;fill-opacity:1;stroke:none" id="path4416" d="M 790.9375,451.25 690,523.375 752.40625,622.5 C 787.00676,600.26908 810,561.55676 810,517.375 c 0,-24.30242 -7.03186,-46.93342 -19.03125,-66.125 -0.003,-0.005 -0.0284,0.005 -0.0312,0 z"/><path style="fill:#fff;stroke:none" id="path4418" d="M 721.625,397.84375 686,440.375 651.46875,397.03125 c -0.0122,0.003 -0.019,0.0279 -0.0312,0.0312 L 682,446.375 l -3,57 -98.84375,-53.9375 c -0.008,0.012 -0.0235,0.0193 -0.0312,0.0312 L 680,523.375 618.625,623.15625 c 0.008,0.005 0.0237,-0.005 0.0312,0 L 680,544.375 686,642.3125 689,542.375 752.40625,622.5 690,523.375 790.9375,451.25 690,507.375 l -1,-61 32.625,-48.53125 z"/><path style="fill:#006eaf;fill-opacity:1;stroke:none" id="path4420" d="M 721.625,397.84375 689,446.375 l 1,61 100.9375,-56.125 C 775.14717,426.00255 750.68398,406.7426 721.625,397.84375 z"/><path style="fill:#013a78;fill-opacity:1;stroke:none" id="path4422" d="m 685,392.375 c -11.6365,0 -22.84292,1.68157 -33.53125,4.65625 L 686,440.375 721.625,397.84375 C 710.03404,394.2942 697.75361,392.375 685,392.375 z"/></g></g></svg>